<?xml version="1.0" encoding="UTF-8"?><svg id="Layer_2" xmlns="http://www.w3.org/2000/svg" viewBox="0 0 370.92 320.48"><defs><style>.cls-1 {
  fill: #35b4e8;
}
</style></defs><g id="Layer_1-2"><path class="cls-1" d="M185.25,320.48c-44.2,0-84.22-17.92-113.18-46.88-13.85-13.85-25.16-30.22-33.21-48.36l32.2-10.97c6.25,13.22,14.72,25.18,24.94,35.4,22.84,22.84,54.4,36.97,89.26,36.97s66.42-14.13,89.26-36.97c13.93-13.93,24.62-31.1,30.84-50.29h-27.5l23.27-40.3,23.27-40.3,23.27,40.3,23.27,40.3h-30.38c-7.14,28.54-21.95,54.05-42.1,74.21-28.97,28.97-68.98,46.88-113.19,46.88M185.67,0c44.2,0,84.22,17.92,113.18,46.88,13.86,13.86,25.18,30.24,33.23,48.4l-32.2,10.97c-6.25-13.24-14.73-25.22-24.96-35.45-22.84-22.84-54.4-36.97-89.26-36.97s-66.42,14.13-89.26,36.97c-13.93,13.93-24.62,31.1-30.84,50.29h27.5l-23.27,40.3-23.27,40.3-23.27-40.3L0,121.1h30.38c7.14-28.54,21.95-54.05,42.1-74.21C101.46,17.92,141.47,0,185.67,0Z"></path></g></svg>